<svg xmlns="http://www.w3.org/2000/svg" viewBox="0 0 128 128">
  <defs>
    <linearGradient id="shield-gradient" x1="0" y1="0" x2="1" y2="1">
      <stop offset="0%" stop-color="#0ea5e9"/>
      <stop offset="100%" stop-color="#14b8a6"/>
    </linearGradient>
  </defs>
  <rect width="128" height="128" rx="24" fill="#f8fafc"/>
  <path
    d="M64 14c18 12 34 14 44 16v40c0 20-12 36-44 50C32 106 20 90 20 70V30c10-2 26-4 44-16Z"
    fill="url(#shield-gradient)"
  />
  <path
    d="M64 30c12 8 22 10 30 12v26c0 13-7 23-30 34-23-11-30-21-30-34V42c8-2 18-4 30-12Z"
    fill="#ffffff" opacity="0.85"
  />
</svg>
